<svg xmlns="http://www.w3.org/2000/svg" viewBox="0 0 24 24"><g data-name="sign"><path d="M12,2A10,10,0,1,0,22,12,10,10,0,0,0,12,2Zm0,18a8,8,0,1,1,8-8A8,8,0,0,1,12,20Z"/><path d="M12.23 7A2.76 2.76 0 0 0 10 7.88a4 4 0 0 0-.84 2.34l2.1.33a2.25 2.25 0 0 1 .32-1.11.76.76 0 0 1 .64-.32.68.68 0 0 1 .53.2.89.89 0 0 1 .18.59 1.29 1.29 0 0 1-.44.82 13.63 13.63 0 0 0-1.06 1.19 2.78 2.78 0 0 0-.35.76 3.9 3.9 0 0 0-.12 1.07V14H13a2.12 2.12 0 0 1 .14-.86 3 3 0 0 1 .69-.87 5.25 5.25 0 0 0 1-1.31 2.58 2.58 0 0 0 .25-1.12 2.78 2.78 0 0 0-1-2.22A2.82 2.82 0 0 0 12.23 7zM12 14.72a1 1 0 1 0 1 1A1 1 0 0 0 12 14.72z"/></g></svg>